:SAMPLES-PER-SECOND 30
:FULLY-SPECIFIED
:DEGREES
232
root  11.39993367 40.99244546 -2.64893329 -0.8486800194 -19.61560059 -14.22980022
lowerback  8.089289665 4.968870163 -3.890700102
upperback  4.205490112 6.206610203 -4.913879871
thorax  -0.007683380041 3.064830065 -3.405950069
lowerneck  6.478059769 4.928899765 -5.830470085
upperneck  14.5909996 4.432549953 20.58320045
head  2.435499907 2.519979954 7.371789932
lclavicle  0 -9.442270133e-015 7.951389973e-016
lhumerus  10.52869987 -16.70149994 68.36090088
lradius  2.782336954e-031 -2.174268868e-031 141.9940033
lwrist  -7.062250077e-031 -0 13.13570023
lhand  -1.496451383e-031 -27.76390076 20.11240005
lfingers  90 7.125020027 -90
lthumb  89.89689403 5.08795885 91.16245106
rclavicle  0 -9.442270133e-015 7.951389973e-016
rhumerus  -18.15839958 4.515120029 -76.10510254
rradius  -1.851886552e-031 3.006552883e-031 121.6309967
rwrist  1.059337512e-030 -0 2.783790112
rhand  -7.920061211e-032 -33.2840004 9.303460121
rfingers  -90 -7.125020027 -90
rthumb  -92.93752616 -24.25625642 -97.11982154
rfemur  -5.602180004 17.27470016 13.18550014
rtibia  -0 0 34.28739929
rfoot  -0 15.81309986 7.72740984
rtoes  5.373923086 19.29304026 -105.8922705
lfemur  -28.25309944 -3.480940104 8.912010193
ltibia  -0 0 48.54359818
lfoot  -0 8.155079842 14.73390007
ltoes  -4.250644065 -19.5611806 -102.515957
233
root  11.51380013 41.25133424 -2.704511102 -0.9094030261 -21.61610031 -13.6281004
lowerback  8.385339737 4.689109802 -4.186049938
upperback  3.998680115 5.768949986 -5.063960075
thorax  -0.4115720093 2.842789888 -3.401819944
lowerneck  6.580639839 5.51940012 -5.744420052
upperneck  15.35509968 5.197080135 19.60740089
head  2.589920044 2.887379885 7.040989876
lclavicle  0 -9.442270133e-015 7.951389973e-016
lhumerus  10.63379955 -15.3434 67.53749847
lradius  2.793117849e-031 -2.16040198e-031 142.279007
lwrist  -7.062250077e-031 -0 13.46339989
lhand  -1.496451383e-031 -27.76390076 20.11240005
lfingers  90 7.125020027 -90
lthumb  89.89689403 5.08795885 91.16245106
rclavicle  0 -9.442270133e-015 7.951389973e-016
rhumerus  -18.40049934 4.461520195 -76.35769653
rradius  -1.910611514e-031 2.969580388e-031 122.7570038
rwrist  7.062250077e-031 -0 2.069449902
rhand  -7.920061211e-032 -33.2840004 9.303460121
rfingers  -90 -7.125020027 -90
rthumb  -92.93752616 -24.25625642 -97.11982154
rfemur  -6.259019852 17.39599991 12.49470043
rtibia  -0 0 34.45330048
rfoot  -4.557737667e-032 14.43239975 1.980690002
rtoes  5.373923086 19.29304026 -105.8922705
lfemur  -27.17000008 -4.336830139 8.533149719
ltibia  -0 0 47.84469986
lfoot  -0 9.766329765 14.73110008
ltoes  -4.250644065 -19.5611806 -102.515957
234
root  11.63062223 41.46555503 -2.76173325 -0.910367012 -23.60110092 -13.14990044
lowerback  8.508520126 4.443449974 -4.25868988
upperback  3.924279928 5.414999962 -5.211830139
thorax  -0.558555007 2.66508007 -3.498729944
lowerneck  6.458079815 6.040929794 -5.608429909
upperneck  15.98390007 5.899159908 18.66419983
head  2.760720015 3.229269981 6.720260143
lclavicle  0 -9.442270133e-015 7.951389973e-016
lhumerus  11.29469967 -14.04660034 66.57279968
lradius  2.797598401e-031 -2.154596766e-031 142.397995
lwrist  -7.062250077e-031 -0 13.74059963
lhand  -1.496451383e-031 -27.76390076 20.11240005
lfingers  90 7.125020027 -90
lthumb  89.89689403 5.08795885 91.16245106
rclavicle  0 -9.442270133e-015 7.951389973e-016
rhumerus  -18.43549919 4.257259846 -76.36180115
rradius  -1.972075581e-031 2.929123067e-031 123.9509964
rwrist  3.531125038e-031 -0 1.280580044
rhand  -7.920061211e-032 -33.2840004 9.303460121
rfingers  -90 -7.125020027 -90
rthumb  -92.93752616 -24.25625642 -97.11982154
rfemur  -7.019100189 17.26479912 11.99639988
rtibia  -0 0 34.89599991
rfoot  -4.519413548e-032 12.40470028 -5.155350208
rtoes  5.373923086 19.29304026 -105.8922705
lfemur  -26.26569939 -5.072869778 8.252449989
ltibia  -0 0 47.36719894
lfoot  -0 11.15460014 13.77490044
ltoes  -4.250644065 -19.5611806 -102.515957
235
root  11.74748864 41.61799874 -2.817266757 -0.8953610063 -25.55500031 -12.71940041
lowerback  8.408699989 4.199729919 -4.264130116
upperback  4.041059971 5.100560188 -5.316430092
thorax  -0.3820160031 2.505439997 -3.562520027
lowerneck  6.058990002 6.547560215 -5.443480015
upperneck  16.41559982 6.626480103 17.68980026
head  2.927870035 3.586319923 6.391149998
lclavicle  0 -9.442270133e-015 7.951389973e-016
lhumerus  12.34189987 -12.70590019 65.56030273
lradius  2.796921749e-031 -2.155475068e-031 142.3800049
lwrist  -7.062250077e-031 1.765562519e-031 13.98789978
lhand  -1.496451383e-031 -27.76390076 20.11240005
lfingers  90 7.125020027 -90
lthumb  89.89689403 5.08795885 91.16245106
rclavicle  0 -9.442270133e-015 7.951389973e-016
rhumerus  -18.01549911 3.990210056 -76.05059814
rradius  -2.038122734e-031 2.88355679e-031 125.2529984
rwrist  1.059337512e-030 -3.531125038e-031 0.3704839945
rhand  -7.920061211e-032 -33.2840004 9.303460121
rfingers  -90 -7.125020027 -90
rthumb  -92.93752616 -24.25625642 -97.11982154
rfemur  -7.814149857 16.94790077 11.60910034
rtibia  -0 0 35.57410049
rfoot  -0 8.319609642 -14.77400017
rtoes  5.373923086 19.29304026 -105.8922705
lfemur  -25.58359909 -5.655340195 7.995520115
ltibia  -0 0 47.14780045
lfoot  -0 12.2592001 11.35449982
ltoes  -4.250644065 -19.5611806 -102.515957
